<?xml version="1.0" encoding="utf-8"?>
<!-- Generator: Adobe Illustrator 25.0.1, SVG Export Plug-In . SVG Version: 6.00 Build 0)  -->
<svg version="1.1" id="Layer_1" xmlns="http://www.w3.org/2000/svg" xmlns:xlink="http://www.w3.org/1999/xlink" x="0px" y="0px"
	 viewBox="0 0 240 91.8" style="enable-background:new 0 0 240 91.8;" xml:space="preserve">
<style type="text/css">
	.st0{fill:#4453A6;}
</style>
<g id="logo" transform="translate(0 0)">
	<path id="border" class="st0" d="M0,0v91.8h240V0H0z M231.6,83.4H8.4v-75h223.1L231.6,83.4z"/>
	<path id="h" class="st0" d="M60.6,25.3v41.2h-8.4V50.1H33.8v16.4h-8.4V25.3h8.4v16.4h18.4V25.3H60.6z"/>
	<path id="e" class="st0" d="M77.5,33.8l0,7.9h11.3l0,8.4H77.5l0,7.9h19.8v8.4H69.1V25.3h28.2v8.4L77.5,33.8z"/>
	<path id="n" class="st0" d="M134.3,25.3v45.6l-20.1-25.1v20.7h-8.4V21.8l20.1,25.1V25.3H134.3z"/>
	<path id="k" class="st0" d="M166.4,66.5l-15.2-22.4l15.2-18.8h8.9l-15.2,18.8l15.2,22.4L166.4,66.5z M142.8,66.5V25.3h8.4v41.2
		L142.8,66.5z"/>
	<path id="u" class="st0" d="M214.7,25.3v25.5c0,4.4-1.4,8.1-4.2,10.9c-3.1,3.2-6.8,4.8-11.3,4.8c-4.5,0-8.2-1.6-11.3-4.8
		c-2.8-2.9-4.2-6.6-4.2-10.9V25.3h8.4v23.9c0,3,0.5,4.8,1.4,6.1c1.4,1.9,3.1,2.8,5.6,2.8c2.5,0,4.3-0.9,5.7-2.8
		c0.9-1.2,1.4-3,1.4-6.1V25.3H214.7z"/>
</g>
</svg>
