<svg id="logo" xmlns="http://www.w3.org/2000/svg" width="104.53" height="40" viewBox="0 0 104.53 40">
  <path id="border" d="M127.518,413.534v40h104.53v-40Zm100.851,36.324H131.2V417.21h97.172Z" transform="translate(-127.518 -413.534)" fill="#fff"/>
  <path id="h" d="M114.927,99.847v17.692H111.3v-7.034h-7.884v7.034H99.794V99.847h3.625v7.033H111.3V99.847Z" transform="translate(-88.921 -88.692)" fill="#fff"/>
  <path id="e" d="M275.579,103.475v3.407h4.861v3.625H275.58v3.41h8.487v3.623H271.954V99.847h12.112v3.628Z" transform="translate(-241.82 -88.692)" fill="#fff"/>
  <path id="n" d="M428.637,87.35v20.107L420,96.38v9.128h-3.625V85.777l8.633,11.074v-9.5Z" transform="translate(-370.241 -76.433)" fill="#fff"/>
  <path id="k" d="M10.151,17.693,3.625,8.067,10.151,0H13.96L7.438,8.07l6.522,9.622ZM0,17.693V0H3.625V17.693Z" transform="translate(62.31 11.155)" fill="#fff"/>
  <path id="u" d="M864.294,513.382v10.93a6.645,6.645,0,1,1-13.285,0v-10.93h3.625v10.244a4.371,4.371,0,0,0,.6,2.627,3.056,3.056,0,0,0,4.849-.007,4.294,4.294,0,0,0,.591-2.62V513.382Z" transform="translate(-770.639 -502.226)" fill="#fff"/>
</svg>
